<?xml version="1.0" encoding="utf-8"?><svg xml:space="preserve" viewBox="0 0 100 100" y="0" x="0" xmlns="http://www.w3.org/2000/svg" id="圖層_1" version="1.1" width="200px" height="200px" xmlns:xlink="http://www.w3.org/1999/xlink" style="width:100%;height:100%;background-size:initial;background-repeat-y:initial;background-repeat-x:initial;background-position-y:initial;background-position-x:initial;background-origin:initial;background-image:initial;background-color:rgb(255, 255, 255);background-clip:initial;background-attachment:initial;animation-play-state:paused" ><g class="ldl-scale" style="transform-origin:50% 50%;transform:rotate(0deg) scale(0.8, 0.8);animation-play-state:paused" ><path fill="#666" d="M63 62.6h-1.8v-3.1c0-2.9-1.8-5.6-4.8-7.2-.8-.4-1.3-1.1-1.3-1.7V50c0-.6.5-1.3 1.3-1.7 3-1.6 4.8-4.3 4.8-7.2V38H63c1 0 1.8-.8 1.8-1.8s-.8-1.8-1.8-1.8H37.5c-1 0-1.8.8-1.8 1.8s.8 1.8 1.8 1.8h1.8v3c0 2.9 1.8 5.6 4.8 7.2.8.4 1.3 1.1 1.3 1.7v.6c0 .6-.5 1.3-1.3 1.7-3 1.6-4.8 4.3-4.8 7.2v3.1h-1.8c-1 0-1.8.8-1.8 1.8s.8 1.8 1.8 1.8H63c1 0 1.8-.8 1.8-1.8 0-.9-.8-1.7-1.8-1.7zm-20.2-3.1c0-1.6 1.1-3.1 3-4.1 2-1.1 3.2-2.9 3.2-4.8V50c0-2-1.2-3.8-3.2-4.8-1.8-1-3-2.5-3-4.1V38h14.8v3c0 1.6-1.1 3.1-3 4.1-2 1.1-3.2 2.9-3.2 4.8v.6c0 2 1.2 3.8 3.2 4.8 1.8 1 3 2.5 3 4.1v3.1H42.8v-3z" style="fill:rgb(102, 102, 102);animation-play-state:paused" ></path>
<path d="M50.3 10v11.6" stroke-miterlimit="10" stroke-linecap="round" stroke-width="3.5" stroke="#333" fill="none" style="stroke:rgb(51, 51, 51);animation-play-state:paused" ></path>
<path d="M30.2 15.2L36 25.3" stroke-miterlimit="10" stroke-linecap="round" stroke-width="3.5" stroke="#333" fill="none" style="stroke:rgb(51, 51, 51);animation-play-state:paused" ></path>
<path d="M15.5 29.8l10 5.8" stroke-miterlimit="10" stroke-linecap="round" stroke-width="3.5" stroke="#333" fill="none" style="stroke:rgb(51, 51, 51);animation-play-state:paused" ></path>
<path d="M10 49.7h11.6" stroke-miterlimit="10" stroke-linecap="round" stroke-width="3.5" stroke="#333" fill="none" style="stroke:rgb(51, 51, 51);animation-play-state:paused" ></path>
<path d="M15.2 69.8L25.3 64" stroke-miterlimit="10" stroke-linecap="round" stroke-width="3.5" stroke="#333" fill="none" style="stroke:rgb(51, 51, 51);animation-play-state:paused" ></path>
<path d="M29.8 84.5l5.8-10" stroke-miterlimit="10" stroke-linecap="round" stroke-width="3.5" stroke="#333" fill="none" style="stroke:rgb(51, 51, 51);animation-play-state:paused" ></path>
<path d="M49.7 90V78.4" stroke-miterlimit="10" stroke-linecap="round" stroke-width="3.5" stroke="#333" fill="none" style="stroke:rgb(51, 51, 51);animation-play-state:paused" ></path>
<path d="M69.8 84.8L64 74.7" stroke-miterlimit="10" stroke-linecap="round" stroke-width="3.5" stroke="#333" fill="none" style="stroke:rgb(51, 51, 51);animation-play-state:paused" ></path>
<path d="M84.5 70.2l-10-5.8" stroke-miterlimit="10" stroke-linecap="round" stroke-width="3.5" stroke="#333" fill="none" style="stroke:rgb(51, 51, 51);animation-play-state:paused" ></path>
<path d="M90 50.3H78.4" stroke-miterlimit="10" stroke-linecap="round" stroke-width="3.5" stroke="#333" fill="none" style="stroke:rgb(51, 51, 51);animation-play-state:paused" ></path>
<path d="M84.8 30.2L74.7 36" stroke-miterlimit="10" stroke-linecap="round" stroke-width="3.5" stroke="#333" fill="none" style="stroke:rgb(51, 51, 51);animation-play-state:paused" ></path>
<path d="M70.2 15.5l-5.8 10" stroke-miterlimit="10" stroke-linecap="round" stroke-width="3.5" stroke="#333" fill="none" style="stroke:rgb(51, 51, 51);animation-play-state:paused" ></path>
<metadata xmlns:d="https://loading.io/stock/" style="animation-play-state:paused" ><d:name style="animation-play-state:paused" >wait</d:name>
<d:tags style="animation-play-state:paused" >wait,spinner,hourglass,loader,preloader,ajax spinner,waiting icon,loading icon,loading gif</d:tags>
<d:license style="animation-play-state:paused" >by</d:license>
<d:slug style="animation-play-state:paused" >8ggqec</d:slug></metadata></g><!-- generated by https://loading.io/ --></svg>